<svg xmlns="http://www.w3.org/2000/svg" xmlns:xlink="http://www.w3.org/1999/xlink" width="50" zoomAndPan="magnify" viewBox="0 0 37.5 37.499999" height="50" preserveAspectRatio="xMidYMid meet" version="1.0"><defs><g/><clipPath id="759b4f1b58"><path d="M 7.617188 4.199219 L 29.078125 4.199219 L 29.078125 33.066406 L 7.617188 33.066406 Z M 7.617188 4.199219 " clip-rule="nonzero"/></clipPath><clipPath id="ae72f22aa7"><path d="M 0.289062 1 L 1.949219 1 L 1.949219 2.972656 L 0.289062 2.972656 Z M 0.289062 1 " clip-rule="nonzero"/></clipPath><clipPath id="226bc6145d"><rect x="0" width="2" y="0" height="3"/></clipPath></defs><g clip-path="url(#759b4f1b58)"><path fill="#000000" d="M 18.566406 33.042969 C 13.421875 33.058594 12.199219 33.039062 11.734375 32.933594 C 11.417969 32.863281 10.867188 32.660156 10.507812 32.476562 C 10.027344 32.238281 9.667969 31.960938 9.183594 31.46875 C 8.699219 30.96875 8.433594 30.605469 8.199219 30.113281 C 8.023438 29.746094 7.820312 29.148438 7.746094 28.785156 C 7.644531 28.269531 7.617188 27.429688 7.617188 24.886719 C 7.617188 23.101562 7.640625 21.550781 7.671875 21.441406 C 7.699219 21.328125 7.863281 21.175781 8.0625 21.082031 L 8.398438 20.925781 L 8.402344 20.207031 C 8.402344 19.8125 8.464844 18.945312 8.539062 18.277344 C 8.613281 17.613281 8.753906 16.664062 8.851562 16.171875 C 8.949219 15.679688 9.144531 14.851562 9.285156 14.335938 C 9.429688 13.816406 9.785156 12.902344 10.074219 12.296875 C 10.367188 11.695312 10.785156 10.949219 11.007812 10.640625 C 11.230469 10.328125 11.632812 9.839844 11.902344 9.550781 C 12.171875 9.257812 12.605469 8.851562 12.871094 8.644531 C 13.136719 8.4375 13.570312 8.148438 13.835938 7.996094 C 14.101562 7.847656 14.582031 7.613281 14.902344 7.472656 C 15.480469 7.21875 15.484375 7.214844 15.542969 6.808594 C 15.574219 6.582031 15.679688 6.222656 15.773438 6.003906 C 15.863281 5.785156 16.078125 5.433594 16.25 5.222656 C 16.441406 4.984375 16.761719 4.738281 17.101562 4.566406 C 17.402344 4.417969 17.863281 4.269531 18.132812 4.238281 C 18.453125 4.199219 18.796875 4.230469 19.160156 4.324219 C 19.457031 4.402344 19.851562 4.5625 20.035156 4.683594 C 20.21875 4.800781 20.5 5.050781 20.660156 5.234375 C 20.820312 5.421875 21.023438 5.75 21.113281 5.964844 C 21.203125 6.179688 21.304688 6.558594 21.335938 6.808594 L 21.394531 7.265625 L 22.109375 7.601562 C 22.503906 7.789062 23.046875 8.085938 23.316406 8.261719 C 23.585938 8.4375 24.09375 8.859375 24.441406 9.195312 C 24.792969 9.53125 25.300781 10.113281 25.574219 10.488281 C 25.84375 10.859375 26.25 11.527344 26.46875 11.964844 C 26.691406 12.40625 26.988281 13.109375 27.132812 13.53125 C 27.277344 13.953125 27.5 14.71875 27.621094 15.238281 C 27.746094 15.757812 27.929688 16.730469 28.023438 17.402344 C 28.121094 18.074219 28.226562 19.132812 28.257812 19.753906 L 28.316406 20.882812 L 28.675781 21.082031 L 29.035156 21.285156 L 29.058594 24.855469 C 29.078125 27.886719 29.058594 28.503906 28.941406 28.976562 C 28.863281 29.28125 28.644531 29.839844 28.453125 30.21875 C 28.242188 30.632812 27.902344 31.117188 27.597656 31.429688 C 27.316406 31.71875 26.835938 32.105469 26.527344 32.292969 C 26.222656 32.476562 25.714844 32.71875 25.398438 32.828125 C 24.835938 33.023438 24.773438 33.027344 18.566406 33.042969 Z M 18.566406 32.328125 L 24.832031 32.308594 L 25.398438 32.085938 C 25.8125 31.921875 26.015625 31.78125 26.164062 31.554688 C 26.277344 31.386719 26.4375 31.023438 26.519531 30.746094 C 26.652344 30.300781 26.671875 29.746094 26.671875 25.585938 C 26.671875 22.390625 26.632812 20.542969 26.554688 19.714844 C 26.492188 19.046875 26.382812 18.121094 26.3125 17.652344 C 26.242188 17.183594 26.109375 16.457031 26.011719 16.039062 C 25.917969 15.617188 25.726562 14.925781 25.585938 14.496094 C 25.441406 14.070312 25.15625 13.382812 24.949219 12.972656 C 24.675781 12.429688 24.378906 12.027344 23.867188 11.5 C 23.351562 10.960938 22.996094 10.679688 22.515625 10.433594 C 22.15625 10.25 21.488281 10 21.027344 9.878906 C 20.390625 9.710938 19.867188 9.644531 18.875 9.609375 C 17.867188 9.570312 17.335938 9.59375 16.59375 9.714844 C 16.066406 9.800781 15.320312 9.984375 14.941406 10.125 C 14.5625 10.269531 14.085938 10.484375 13.886719 10.605469 C 13.683594 10.726562 13.308594 11.015625 13.058594 11.246094 C 12.808594 11.480469 12.429688 11.914062 12.222656 12.214844 C 12.011719 12.519531 11.734375 12.988281 11.601562 13.257812 C 11.46875 13.527344 11.246094 14.085938 11.105469 14.496094 C 10.964844 14.90625 10.773438 15.59375 10.675781 16.023438 C 10.578125 16.449219 10.421875 17.351562 10.328125 18.027344 C 10.234375 18.703125 10.117188 20.078125 10.070312 21.078125 C 10.023438 22.078125 9.984375 24.207031 9.984375 25.8125 C 9.980469 27.414062 10.023438 29.167969 10.070312 29.710938 C 10.140625 30.476562 10.21875 30.820312 10.414062 31.25 C 10.59375 31.648438 10.746094 31.847656 10.949219 31.953125 C 11.101562 32.035156 11.46875 32.15625 11.765625 32.222656 C 12.195312 32.320312 13.558594 32.34375 18.566406 32.328125 Z M 18.523438 31.34375 C 13.980469 31.355469 12.933594 31.335938 12.605469 31.234375 C 12.386719 31.164062 12.039062 30.957031 11.828125 30.773438 C 11.617188 30.585938 11.355469 30.234375 11.238281 29.984375 L 11.035156 29.53125 L 11.035156 25.765625 C 11.035156 23.445312 11.066406 21.871094 11.125 21.667969 C 11.171875 21.484375 11.339844 21.160156 11.496094 20.949219 C 11.667969 20.71875 11.964844 20.46875 12.253906 20.320312 L 12.726562 20.074219 L 18.386719 20.074219 C 23.710938 20.078125 24.0625 20.085938 24.390625 20.242188 C 24.585938 20.335938 24.875 20.546875 25.039062 20.710938 C 25.203125 20.878906 25.410156 21.175781 25.5 21.371094 C 25.644531 21.703125 25.660156 22.046875 25.660156 25.644531 C 25.664062 29.015625 25.644531 29.601562 25.523438 29.902344 C 25.445312 30.09375 25.238281 30.402344 25.0625 30.59375 C 24.886719 30.78125 24.585938 31.023438 24.390625 31.128906 C 24.042969 31.324219 24 31.324219 18.523438 31.34375 Z M 9.515625 30.800781 C 9.535156 30.78125 9.507812 30.589844 9.460938 30.371094 C 9.410156 30.148438 9.371094 28.5625 9.371094 26.636719 C 9.367188 24.039062 9.34375 23.289062 9.257812 23.265625 C 9.199219 23.25 9.03125 23.195312 8.886719 23.144531 C 8.742188 23.09375 8.554688 23.023438 8.46875 22.988281 C 8.324219 22.925781 8.316406 23.082031 8.316406 25.527344 C 8.316406 27.109375 8.355469 28.320312 8.414062 28.609375 C 8.46875 28.871094 8.625 29.332031 8.757812 29.640625 C 8.894531 29.945312 9.109375 30.339844 9.242188 30.515625 C 9.371094 30.691406 9.496094 30.820312 9.515625 30.800781 Z M 27.414062 30.5625 C 27.5625 30.390625 27.800781 30.007812 27.945312 29.710938 C 28.085938 29.414062 28.261719 28.855469 28.335938 28.46875 C 28.429688 27.957031 28.464844 27.121094 28.464844 25.34375 C 28.464844 23.074219 28.457031 22.925781 28.3125 22.984375 C 28.226562 23.015625 27.992188 23.089844 27.789062 23.144531 L 27.414062 23.246094 L 27.410156 26.300781 C 27.410156 27.980469 27.375 29.613281 27.332031 29.933594 C 27.292969 30.253906 27.230469 30.597656 27.199219 30.695312 C 27.160156 30.816406 27.234375 30.769531 27.414062 30.5625 Z M 18.375 30.648438 C 22.972656 30.652344 23.871094 30.632812 24.078125 30.523438 C 24.210938 30.449219 24.445312 30.25 24.597656 30.074219 C 24.75 29.898438 24.902344 29.640625 24.9375 29.507812 C 24.976562 29.371094 25.003906 28.273438 25.003906 27.066406 C 25.003906 25.335938 24.980469 24.875 24.894531 24.890625 C 24.832031 24.90625 24.519531 24.957031 24.195312 25.007812 C 23.871094 25.0625 21.75 25.125 19.484375 25.152344 C 16.902344 25.183594 14.8125 25.167969 13.878906 25.105469 C 13.058594 25.050781 12.253906 24.96875 12.089844 24.917969 C 11.863281 24.851562 11.769531 24.855469 11.71875 24.9375 C 11.679688 25 11.648438 25.957031 11.648438 27.066406 C 11.648438 28.175781 11.683594 29.222656 11.730469 29.398438 C 11.777344 29.570312 11.941406 29.867188 12.097656 30.058594 C 12.25 30.25 12.496094 30.460938 12.644531 30.523438 C 12.863281 30.621094 14.011719 30.644531 18.375 30.648438 Z M 18.875 24.421875 C 22.230469 24.40625 24.039062 24.363281 24.390625 24.292969 C 24.675781 24.234375 24.9375 24.144531 24.96875 24.09375 C 25 24.042969 25.023438 23.503906 25.015625 22.902344 C 25.007812 21.84375 24.996094 21.796875 24.753906 21.46875 C 24.617188 21.285156 24.378906 21.054688 24.230469 20.960938 C 23.964844 20.796875 23.710938 20.789062 18.339844 20.789062 L 12.722656 20.789062 L 12.425781 20.992188 C 12.265625 21.105469 12.042969 21.332031 11.933594 21.5 C 11.773438 21.738281 11.730469 21.9375 11.722656 22.4375 C 11.71875 22.789062 11.714844 23.238281 11.714844 23.433594 C 11.71875 23.632812 11.722656 23.863281 11.726562 23.945312 C 11.730469 24.050781 11.859375 24.136719 12.105469 24.207031 C 12.308594 24.261719 12.792969 24.339844 13.179688 24.378906 C 13.5625 24.414062 16.125 24.433594 18.875 24.421875 Z M 19.925781 24.039062 C 18.71875 24.050781 16.65625 24.035156 15.335938 24.003906 C 14.019531 23.972656 12.796875 23.917969 12.621094 23.882812 C 12.445312 23.851562 12.253906 23.78125 12.191406 23.730469 C 12.132812 23.679688 12.082031 23.5625 12.082031 23.472656 C 12.082031 23.382812 12.160156 23.265625 12.253906 23.210938 C 12.375 23.144531 12.609375 23.148438 13.042969 23.214844 C 13.402344 23.273438 15.234375 23.320312 17.449219 23.328125 C 19.53125 23.339844 22.007812 23.324219 22.945312 23.300781 C 24.628906 23.257812 24.65625 23.257812 24.679688 23.441406 C 24.695312 23.546875 24.644531 23.683594 24.570312 23.746094 C 24.488281 23.816406 23.988281 23.890625 23.273438 23.9375 C 22.636719 23.980469 21.128906 24.027344 19.925781 24.039062 Z M 9.199219 22.488281 C 9.320312 22.492188 9.347656 22.296875 9.398438 21.125 C 9.429688 20.375 9.515625 19.214844 9.59375 18.546875 C 9.667969 17.882812 9.828125 16.855469 9.949219 16.265625 C 10.070312 15.675781 10.269531 14.871094 10.390625 14.472656 C 10.511719 14.078125 10.804688 13.367188 11.042969 12.898438 C 11.28125 12.429688 11.683594 11.785156 11.9375 11.464844 C 12.191406 11.144531 12.652344 10.683594 12.964844 10.445312 C 13.273438 10.203125 13.765625 9.894531 14.054688 9.753906 C 14.34375 9.613281 14.925781 9.398438 15.34375 9.277344 C 15.777344 9.148438 16.597656 9.003906 17.234375 8.945312 C 18.074219 8.867188 18.632812 8.867188 19.449219 8.941406 C 20.046875 8.996094 20.851562 9.121094 21.238281 9.222656 C 21.625 9.324219 22.257812 9.566406 22.644531 9.757812 C 23.03125 9.953125 23.523438 10.253906 23.738281 10.425781 C 23.953125 10.601562 24.375 11.03125 24.675781 11.386719 C 24.980469 11.742188 25.382812 12.355469 25.578125 12.746094 C 25.769531 13.136719 26.0625 13.867188 26.226562 14.367188 C 26.386719 14.867188 26.605469 15.667969 26.707031 16.152344 C 26.808594 16.632812 26.96875 17.65625 27.066406 18.425781 C 27.164062 19.199219 27.265625 20.429688 27.296875 21.160156 C 27.347656 22.296875 27.375 22.492188 27.496094 22.492188 C 27.570312 22.488281 27.796875 22.414062 27.996094 22.320312 C 28.195312 22.230469 28.386719 22.105469 28.421875 22.046875 C 28.457031 21.992188 28.464844 21.921875 28.4375 21.898438 C 28.414062 21.871094 28.3125 21.933594 28.210938 22.039062 C 28.109375 22.140625 27.949219 22.222656 27.851562 22.222656 C 27.691406 22.222656 27.675781 22.164062 27.675781 21.441406 C 27.675781 21.007812 27.617188 19.988281 27.546875 19.175781 C 27.476562 18.363281 27.359375 17.375 27.292969 16.980469 C 27.222656 16.585938 27.066406 15.839844 26.945312 15.320312 C 26.828125 14.800781 26.609375 14.039062 26.460938 13.628906 C 26.3125 13.214844 26.027344 12.570312 25.828125 12.195312 C 25.625 11.816406 25.34375 11.328125 25.195312 11.105469 C 25.046875 10.882812 24.671875 10.425781 24.355469 10.085938 C 24.039062 9.75 23.542969 9.300781 23.253906 9.089844 C 22.964844 8.878906 22.492188 8.585938 22.203125 8.441406 C 21.914062 8.292969 21.433594 8.085938 21.136719 7.984375 C 20.84375 7.878906 20.351562 7.753906 20.042969 7.703125 C 19.738281 7.652344 18.953125 7.609375 18.304688 7.613281 C 17.476562 7.613281 16.875 7.664062 16.296875 7.785156 C 15.800781 7.890625 15.175781 8.105469 14.738281 8.320312 C 14.339844 8.515625 13.824219 8.808594 13.59375 8.96875 C 13.367188 9.128906 13.023438 9.402344 12.835938 9.578125 C 12.648438 9.753906 12.253906 10.183594 11.957031 10.539062 C 11.660156 10.890625 11.214844 11.558594 10.964844 12.019531 C 10.714844 12.480469 10.410156 13.117188 10.28125 13.433594 C 10.15625 13.75 9.921875 14.558594 9.757812 15.226562 C 9.597656 15.894531 9.40625 16.863281 9.332031 17.382812 C 9.257812 17.898438 9.15625 18.96875 9.105469 19.757812 C 9.054688 20.546875 9.003906 21.414062 8.992188 21.683594 C 8.976562 22.066406 8.941406 22.183594 8.824219 22.207031 C 8.746094 22.222656 8.597656 22.152344 8.496094 22.050781 C 8.398438 21.949219 8.316406 21.898438 8.316406 21.941406 C 8.316406 21.984375 8.386719 22.082031 8.472656 22.160156 C 8.558594 22.238281 8.722656 22.34375 8.84375 22.394531 C 8.964844 22.441406 9.125 22.484375 9.199219 22.488281 Z M 18.394531 15.410156 L 16.542969 15.410156 L 16.324219 15.183594 C 16.101562 14.957031 16.101562 14.953125 16.128906 13.5625 C 16.15625 12.21875 16.164062 12.160156 16.363281 11.996094 C 16.554688 11.839844 16.730469 11.824219 18.394531 11.824219 C 20.199219 11.824219 20.222656 11.828125 20.46875 12.039062 C 20.710938 12.253906 20.710938 12.257812 20.742188 13.5625 L 20.769531 14.871094 L 20.246094 15.410156 Z M 18.390625 14.691406 C 19.949219 14.691406 19.964844 14.691406 20.015625 14.492188 C 20.042969 14.378906 20.050781 13.90625 20.039062 13.4375 L 20.011719 12.585938 L 18.414062 12.5625 L 16.8125 12.535156 L 16.8125 14.691406 Z M 16.246094 7.070312 C 16.320312 7.070312 16.394531 7.019531 16.414062 6.960938 C 16.429688 6.898438 16.488281 6.683594 16.539062 6.480469 C 16.601562 6.257812 16.785156 5.960938 17.023438 5.714844 C 17.25 5.480469 17.558594 5.265625 17.757812 5.207031 C 17.949219 5.148438 18.257812 5.097656 18.445312 5.097656 C 18.632812 5.101562 18.933594 5.140625 19.117188 5.195312 C 19.296875 5.246094 19.582031 5.410156 19.75 5.558594 C 19.914062 5.707031 20.125 5.957031 20.21875 6.113281 C 20.3125 6.269531 20.417969 6.550781 20.453125 6.734375 C 20.488281 6.933594 20.5625 7.070312 20.636719 7.070312 C 20.703125 7.070312 20.757812 7 20.757812 6.914062 C 20.757812 6.828125 20.714844 6.609375 20.667969 6.429688 C 20.617188 6.246094 20.402344 5.898438 20.1875 5.652344 C 19.96875 5.410156 19.644531 5.148438 19.464844 5.074219 C 19.285156 5 18.929688 4.914062 18.679688 4.878906 C 18.359375 4.832031 18.078125 4.859375 17.71875 4.964844 C 17.316406 5.082031 17.121094 5.207031 16.796875 5.558594 C 16.570312 5.804688 16.347656 6.132812 16.300781 6.292969 C 16.253906 6.449219 16.191406 6.6875 16.164062 6.824219 C 16.125 7.011719 16.144531 7.070312 16.246094 7.070312 Z M 19.722656 6.960938 C 19.84375 6.980469 19.855469 6.9375 19.796875 6.722656 C 19.757812 6.582031 19.660156 6.363281 19.578125 6.238281 C 19.496094 6.113281 19.304688 5.953125 19.152344 5.878906 C 19 5.808594 18.734375 5.722656 18.5625 5.691406 C 18.335938 5.652344 18.152344 5.691406 17.863281 5.839844 C 17.648438 5.949219 17.382812 6.175781 17.273438 6.34375 C 17.167969 6.511719 17.078125 6.703125 17.078125 6.769531 C 17.078125 6.859375 17.359375 6.894531 18.324219 6.914062 C 19.011719 6.929688 19.640625 6.953125 19.722656 6.960938 Z M 19.722656 6.960938 " fill-opacity="1" fill-rule="evenodd"/></g><g transform="matrix(1, 0, 0, 1, 26, 29)"><g clip-path="url(#226bc6145d)"><g clip-path="url(#ae72f22aa7)"><g fill="#000000" fill-opacity="1"><g transform="translate(0.916121, 2.330395)"><g><path d="M 0.53125 0 L 0.515625 -0.09375 L 0.5 -0.09375 C 0.46875 -0.0507812 0.4375 -0.0195312 0.40625 0 C 0.375 0.0078125 0.332031 0.015625 0.28125 0.015625 C 0.207031 0.015625 0.148438 0 0.109375 -0.03125 C 0.078125 -0.0703125 0.0625 -0.125 0.0625 -0.1875 C 0.0625 -0.332031 0.171875 -0.40625 0.390625 -0.40625 L 0.5 -0.421875 L 0.5 -0.453125 C 0.5 -0.503906 0.488281 -0.539062 0.46875 -0.5625 C 0.445312 -0.59375 0.410156 -0.609375 0.359375 -0.609375 C 0.328125 -0.609375 0.296875 -0.601562 0.265625 -0.59375 C 0.234375 -0.582031 0.203125 -0.570312 0.171875 -0.5625 L 0.140625 -0.640625 C 0.171875 -0.660156 0.207031 -0.675781 0.25 -0.6875 C 0.289062 -0.695312 0.332031 -0.703125 0.375 -0.703125 C 0.457031 -0.703125 0.515625 -0.679688 0.546875 -0.640625 C 0.585938 -0.609375 0.609375 -0.550781 0.609375 -0.46875 L 0.609375 0 Z M 0.296875 -0.078125 C 0.359375 -0.078125 0.40625 -0.09375 0.4375 -0.125 C 0.476562 -0.164062 0.5 -0.21875 0.5 -0.28125 L 0.5 -0.34375 L 0.40625 -0.328125 C 0.320312 -0.328125 0.257812 -0.316406 0.21875 -0.296875 C 0.1875 -0.273438 0.171875 -0.238281 0.171875 -0.1875 C 0.171875 -0.15625 0.179688 -0.128906 0.203125 -0.109375 C 0.222656 -0.0859375 0.253906 -0.078125 0.296875 -0.078125 Z M 0.296875 -0.078125 "/></g></g></g></g></g></g></svg>