<svg xmlns="http://www.w3.org/2000/svg" xmlns:xlink="http://www.w3.org/1999/xlink" width="72" zoomAndPan="magnify" viewBox="0 0 54 76.499998" height="102" preserveAspectRatio="xMidYMid meet" version="1.0"><defs><g/><clipPath id="5fcd5d2729"><path d="M 1 1 L 2.503906 1 L 2.503906 3 L 1 3 Z M 1 1 " clip-rule="nonzero"/></clipPath><clipPath id="666f6eef9f"><rect x="0" width="3" y="0" height="4"/></clipPath><clipPath id="b1d87a6d78"><path d="M 6.390625 5.863281 L 47.371094 5.863281 L 47.371094 69.945312 L 6.390625 69.945312 Z M 6.390625 5.863281 " clip-rule="nonzero"/></clipPath></defs><g transform="matrix(1, 0, 0, 1, 27, 42)"><g clip-path="url(#666f6eef9f)"><g clip-path="url(#5fcd5d2729)"><g fill="#000000" fill-opacity="1"><g transform="translate(1.043182, 2.240461)"><g><path d="M 0.84375 0 L 0.78125 -0.140625 L 0.765625 -0.140625 C 0.722656 -0.078125 0.675781 -0.0351562 0.625 -0.015625 C 0.570312 0.00390625 0.503906 0.015625 0.421875 0.015625 C 0.316406 0.015625 0.234375 -0.0078125 0.171875 -0.0625 C 0.109375 -0.125 0.078125 -0.210938 0.078125 -0.328125 C 0.078125 -0.441406 0.117188 -0.523438 0.203125 -0.578125 C 0.285156 -0.628906 0.40625 -0.65625 0.5625 -0.65625 L 0.75 -0.671875 L 0.75 -0.71875 C 0.75 -0.820312 0.691406 -0.875 0.578125 -0.875 C 0.492188 -0.875 0.394531 -0.847656 0.28125 -0.796875 L 0.1875 -1 C 0.3125 -1.0625 0.445312 -1.09375 0.59375 -1.09375 C 0.738281 -1.09375 0.847656 -1.0625 0.921875 -1 C 1.003906 -0.9375 1.046875 -0.84375 1.046875 -0.71875 L 1.046875 0 Z M 0.75 -0.5 L 0.640625 -0.5 C 0.554688 -0.488281 0.492188 -0.46875 0.453125 -0.4375 C 0.410156 -0.414062 0.390625 -0.375 0.390625 -0.3125 C 0.390625 -0.226562 0.4375 -0.1875 0.53125 -0.1875 C 0.59375 -0.1875 0.644531 -0.207031 0.6875 -0.25 C 0.726562 -0.289062 0.75 -0.34375 0.75 -0.40625 Z M 0.75 -0.5 "/></g></g></g></g></g></g><g clip-path="url(#b1d87a6d78)"><path fill="#ffffff" d="M 16.628906 58.214844 C 16.253906 58.46875 16.046875 58.839844 15.855469 59.21875 C 15.5625 59.816406 15.285156 60.425781 14.871094 60.953125 C 14.71875 61.144531 14.589844 61.371094 14.347656 61.476562 C 14.21875 61.351562 14.296875 61.230469 14.335938 61.121094 C 14.582031 60.402344 14.820312 59.683594 15.089844 58.976562 C 15.335938 58.332031 15.4375 57.65625 15.585938 56.988281 C 15.628906 56.800781 15.578125 56.671875 15.421875 56.578125 C 15.34375 56.53125 15.265625 56.484375 15.1875 56.441406 C 14.339844 55.960938 14.089844 56.015625 13.53125 56.808594 C 13.125 57.386719 12.816406 58.019531 12.457031 58.621094 C 12.257812 58.964844 12.039062 59.292969 11.816406 59.621094 C 11.738281 59.738281 11.644531 59.859375 11.496094 59.898438 C 11.339844 59.9375 11.230469 59.890625 11.277344 59.710938 C 11.320312 59.535156 11.382812 59.363281 11.449219 59.199219 C 11.804688 58.308594 12.058594 57.390625 12.242188 56.449219 C 12.3125 56.109375 12.300781 55.769531 12.320312 55.425781 C 12.332031 55.175781 12.226562 55.023438 12.039062 54.890625 C 11.710938 54.65625 11.355469 54.488281 11 54.3125 C 10.734375 54.183594 10.609375 54.277344 10.503906 54.519531 C 10.0625 55.527344 9.613281 56.527344 9.160156 57.53125 C 9.0625 57.742188 8.941406 57.945312 8.820312 58.144531 C 8.761719 58.242188 8.65625 58.28125 8.539062 58.234375 C 8.441406 58.195312 8.410156 58.105469 8.414062 58.015625 C 8.417969 57.875 8.4375 57.730469 8.460938 57.589844 C 8.660156 56.390625 9.046875 55.246094 9.550781 54.144531 C 9.785156 53.636719 9.65625 53.101562 9.179688 52.78125 C 8.398438 52.261719 8.488281 52.300781 8.179688 53.027344 C 7.765625 54.003906 7.328125 54.972656 6.882812 55.9375 C 6.792969 56.132812 6.734375 56.386719 6.460938 56.453125 C 6.390625 55.066406 8.515625 48.875 10.984375 44.734375 C 13.144531 41.109375 15.644531 37.757812 18.757812 34.859375 C 18.386719 34.480469 17.964844 34.148438 17.550781 33.808594 C 15.355469 32.011719 13.636719 29.839844 12.414062 27.273438 C 11.355469 25.050781 11.125 22.703125 11.410156 20.304688 C 11.820312 16.859375 13.296875 13.90625 15.75 11.445312 C 16.261719 10.9375 16.769531 10.425781 17.300781 9.9375 C 18.996094 8.390625 20.964844 7.355469 23.179688 6.738281 C 25.117188 6.199219 27.070312 5.867188 29.09375 5.921875 C 35.609375 6.101562 41.898438 9.832031 44.933594 15.5625 C 45.160156 15.992188 45.410156 16.410156 45.648438 16.835938 C 47.074219 19.402344 47.605469 22.160156 47.371094 25.074219 C 47.167969 27.585938 46.496094 29.960938 45.332031 32.199219 C 44.347656 34.09375 42.957031 35.628906 41.207031 36.839844 C 40.375 37.414062 39.523438 37.960938 38.59375 38.363281 C 38.414062 38.441406 38.355469 38.535156 38.34375 38.722656 C 38.238281 40.527344 37.320312 41.917969 36.054688 43.113281 C 34.910156 44.199219 33.59375 45.050781 32.195312 45.777344 C 31.535156 46.121094 30.839844 46.367188 30.082031 46.363281 C 29.847656 46.363281 29.78125 46.472656 29.75 46.6875 C 28.667969 53.921875 28.15625 61.1875 28.488281 68.503906 C 28.5 68.828125 28.503906 69.152344 28.503906 69.476562 C 28.503906 69.566406 28.488281 69.664062 28.382812 69.691406 C 28.28125 69.71875 28.207031 69.660156 28.15625 69.582031 C 28.015625 69.367188 27.949219 69.125 27.882812 68.878906 C 27.648438 67.988281 27.523438 67.078125 27.425781 66.164062 C 27.371094 65.660156 27.136719 65.394531 26.679688 65.332031 C 26.316406 65.28125 26.007812 65.496094 25.828125 65.9375 C 25.6875 66.277344 25.671875 66.640625 25.652344 66.996094 C 25.621094 67.664062 25.664062 68.328125 25.726562 68.992188 C 25.742188 69.136719 25.753906 69.28125 25.75 69.425781 C 25.746094 69.535156 25.703125 69.636719 25.574219 69.667969 C 25.453125 69.699219 25.351562 69.65625 25.300781 69.550781 C 25.222656 69.390625 25.148438 69.222656 25.097656 69.050781 C 24.953125 68.542969 24.914062 68.023438 24.90625 67.5 C 24.898438 67.03125 24.867188 66.5625 24.875 66.097656 C 24.875 65.851562 24.78125 65.730469 24.539062 65.707031 C 24.09375 65.65625 23.644531 65.613281 23.199219 65.546875 C 22.949219 65.511719 22.835938 65.617188 22.777344 65.847656 C 22.6875 66.203125 22.664062 66.558594 22.660156 66.921875 C 22.644531 67.625 22.703125 68.324219 22.773438 69.023438 C 22.792969 69.238281 22.816406 69.453125 22.648438 69.636719 C 22.40625 69.898438 22.101562 69.867188 21.953125 69.542969 C 21.878906 69.382812 21.847656 69.199219 21.820312 69.023438 C 21.71875 68.308594 21.691406 67.589844 21.703125 66.867188 C 21.710938 66.523438 21.671875 66.183594 21.554688 65.855469 C 21.410156 65.441406 20.960938 65.363281 20.675781 65.707031 C 20.546875 65.863281 20.484375 66.050781 20.417969 66.238281 C 20.09375 67.144531 19.960938 68.089844 19.859375 69.042969 C 19.847656 69.148438 19.851562 69.257812 19.832031 69.363281 C 19.773438 69.695312 19.59375 69.863281 19.347656 69.832031 C 19.117188 69.804688 18.980469 69.628906 18.972656 69.320312 C 18.96875 69.140625 18.984375 68.960938 19 68.78125 C 19.046875 68.132812 19.109375 67.488281 19.242188 66.851562 C 19.261719 66.761719 19.273438 66.675781 19.285156 66.582031 C 19.375 65.75 19.332031 65.6875 18.503906 65.476562 C 18.207031 65.402344 17.910156 65.328125 17.609375 65.273438 C 17.097656 65.179688 16.769531 65.433594 16.75 65.960938 C 16.726562 66.753906 16.734375 67.546875 16.722656 68.339844 C 16.71875 68.699219 16.730469 69.0625 16.695312 69.417969 C 16.648438 69.882812 16.4375 70.125 16.15625 70.117188 C 15.898438 70.105469 15.699219 69.875 15.632812 69.449219 C 15.511719 68.625 15.546875 67.796875 15.570312 66.96875 C 15.625 65.09375 15.816406 63.230469 16.101562 61.375 C 16.265625 60.328125 16.34375 59.265625 16.625 58.214844 Z M 18 11.230469 C 17.839844 11.222656 17.792969 11.28125 17.742188 11.328125 C 16.574219 12.433594 15.5 13.621094 14.574219 14.9375 C 14.417969 15.15625 14.292969 15.398438 14.179688 15.644531 C 13.722656 16.628906 13.367188 17.648438 13.140625 18.710938 C 12.507812 21.6875 12.78125 24.519531 14.46875 27.128906 C 14.96875 27.902344 15.4375 28.691406 15.878906 29.5 C 15.988281 29.703125 16.132812 29.894531 16.265625 30.085938 C 17.234375 31.445312 18.414062 32.605469 19.730469 33.628906 C 21.007812 34.628906 22.335938 35.558594 23.636719 36.527344 C 24.804688 37.402344 25.945312 38.3125 26.929688 39.402344 C 27.21875 39.726562 27.519531 40.03125 27.839844 40.320312 C 29.019531 41.390625 29.800781 42.664062 29.816406 44.316406 C 29.820312 44.71875 30.121094 45.027344 30.515625 45.089844 C 30.789062 45.132812 31.046875 45.101562 31.292969 44.941406 C 32.832031 43.929688 34.300781 42.835938 35.589844 41.507812 C 36.417969 40.652344 36.710938 39.613281 36.648438 38.484375 C 36.5625 37.015625 36.0625 35.65625 35.214844 34.457031 C 34.453125 33.382812 33.558594 32.417969 32.5 31.613281 C 30.832031 30.351562 29.160156 29.101562 27.507812 27.820312 C 25.117188 25.96875 23.128906 23.757812 21.664062 21.09375 C 21.136719 20.132812 20.796875 19.117188 20.644531 18.035156 C 20.4375 16.535156 20.746094 15.167969 21.648438 13.945312 C 21.875 13.640625 22.089844 13.328125 22.335938 13.042969 C 23.191406 12.042969 24.167969 11.183594 25.441406 10.769531 C 27.238281 10.1875 29.078125 10.078125 30.925781 10.550781 C 31.347656 10.660156 31.757812 10.796875 32.136719 11.011719 C 32.277344 11.089844 32.417969 11.175781 32.519531 11.304688 C 32.742188 11.59375 32.628906 11.9375 32.273438 12.015625 C 32.023438 12.070312 31.773438 12.023438 31.527344 11.957031 C 30.933594 11.804688 30.339844 11.648438 29.746094 11.5 C 29.378906 11.40625 29.003906 11.355469 28.621094 11.382812 C 27.273438 11.472656 26.050781 11.90625 24.980469 12.734375 C 23.96875 13.515625 23.1875 14.503906 22.453125 15.535156 C 22.316406 15.726562 22.210938 15.945312 22.246094 16.34375 C 22.445312 16.183594 22.546875 16.078125 22.667969 16.003906 C 24.359375 14.992188 26.1875 14.550781 28.148438 14.667969 C 30.53125 14.808594 32.746094 15.519531 34.824219 16.671875 C 36.460938 17.578125 37.914062 18.726562 39.105469 20.179688 C 39.847656 21.082031 40.417969 22.074219 40.597656 23.253906 C 40.605469 23.308594 40.636719 23.355469 40.722656 23.351562 C 41.039062 22.773438 41.21875 22.136719 41.378906 21.488281 C 41.628906 20.476562 41.546875 19.488281 41.144531 18.523438 C 40.886719 17.90625 40.546875 17.332031 40.191406 16.765625 C 39.894531 16.292969 39.589844 15.824219 39.308594 15.339844 C 39.21875 15.183594 39.027344 14.964844 39.222656 14.8125 C 39.414062 14.664062 39.589844 14.898438 39.726562 15.019531 C 40.65625 15.808594 41.410156 16.746094 42.003906 17.808594 C 42.742188 19.125 42.921875 20.519531 42.589844 21.992188 C 42.09375 24.214844 40.957031 26.054688 39.292969 27.582031 C 37.882812 28.871094 36.28125 29.867188 34.53125 30.632812 C 34.394531 30.691406 34.210938 30.699219 34.117188 30.929688 C 36.171875 32.476562 37.617188 34.464844 38.214844 37.066406 C 38.980469 36.636719 39.671875 36.226562 40.339844 35.769531 C 41.726562 34.816406 42.867188 33.625 43.730469 32.179688 C 45.324219 29.5 46.136719 26.59375 46.128906 23.480469 C 46.125 20.371094 45.222656 17.566406 43.28125 15.097656 C 40.898438 12.070312 37.914062 9.898438 34.328125 8.539062 C 32.109375 7.695312 29.796875 7.371094 27.433594 7.378906 C 24.914062 7.390625 22.71875 8.296875 20.824219 9.933594 C 19.800781 10.820312 19.132812 11.9375 18.8125 13.257812 C 18.417969 14.871094 18.46875 16.46875 18.972656 18.058594 C 19.308594 19.109375 19.78125 20.101562 20.261719 21.089844 C 20.445312 21.460938 20.609375 21.84375 20.773438 22.222656 C 20.820312 22.332031 20.890625 22.46875 20.769531 22.570312 C 20.640625 22.683594 20.5 22.621094 20.371094 22.542969 C 20.070312 22.363281 19.84375 22.105469 19.636719 21.832031 C 18.417969 20.222656 17.601562 18.433594 17.296875 16.429688 C 17.078125 15 17.199219 13.589844 17.632812 12.210938 C 17.730469 11.886719 17.867188 11.574219 17.996094 11.226562 Z M 27.691406 42.824219 C 27.71875 42.722656 27.695312 42.664062 27.515625 42.417969 C 26.8125 41.429688 26 40.542969 25.097656 39.734375 C 23.53125 38.320312 21.753906 37.171875 20.089844 35.882812 C 19.929688 35.761719 19.820312 35.765625 19.6875 35.925781 C 19.46875 36.191406 19.246094 36.449219 19 36.691406 C 14.859375 40.769531 11.675781 45.515625 9.207031 50.761719 C 8.996094 51.207031 8.992188 51.21875 9.386719 51.480469 C 10.886719 52.480469 12.371094 53.496094 13.898438 54.449219 C 15.085938 55.191406 16.28125 55.9375 17.636719 56.355469 C 17.824219 56.410156 18 56.515625 18.175781 56.605469 C 18.574219 56.8125 18.574219 56.8125 18.722656 56.398438 C 19.214844 55.0625 19.796875 53.765625 20.46875 52.507812 C 22.34375 49.007812 24.664062 45.839844 27.484375 43.039062 C 27.558594 42.960938 27.636719 42.886719 27.691406 42.828125 Z M 30.886719 16.671875 C 29.679688 16.355469 28.5625 16.183594 27.417969 16.234375 C 25.679688 16.3125 24.117188 16.917969 22.636719 17.785156 C 22.183594 18.046875 22.175781 18.046875 22.324219 18.527344 C 22.761719 19.914062 23.417969 21.179688 24.328125 22.328125 C 25.347656 23.613281 26.378906 24.894531 27.675781 25.914062 C 29.304688 27.195312 30.964844 28.425781 32.609375 29.6875 C 32.75 29.792969 32.867188 29.839844 33.046875 29.761719 C 34.511719 29.101562 35.960938 28.417969 37.253906 27.449219 C 38.183594 26.753906 39.011719 25.964844 39.726562 25.046875 C 39.917969 24.800781 39.988281 24.554688 39.953125 24.25 C 39.875 23.59375 39.660156 22.988281 39.328125 22.421875 C 38.894531 21.6875 38.328125 21.054688 37.707031 20.476562 C 35.71875 18.625 33.398438 17.367188 30.886719 16.667969 Z M 28.46875 44.140625 C 28.296875 44.179688 28.222656 44.3125 28.128906 44.414062 C 25.125 47.609375 22.546875 51.109375 20.582031 55.035156 C 19.585938 57.035156 18.621094 59.054688 18.21875 61.28125 C 18.167969 61.558594 17.996094 61.773438 17.855469 62 C 17.734375 62.191406 17.554688 62.242188 17.339844 62.148438 C 17.253906 62.113281 17.210938 61.960938 17.066406 62.054688 C 17.023438 62.386719 16.988281 62.726562 16.941406 63.066406 C 16.90625 63.308594 16.984375 63.445312 17.246094 63.457031 C 17.371094 63.464844 17.492188 63.492188 17.617188 63.515625 C 19.023438 63.742188 20.445312 63.835938 21.859375 63.988281 C 23.648438 64.179688 25.449219 64.191406 27.230469 64.351562 C 27.316406 64.234375 27.285156 64.125 27.28125 64.019531 C 27.148438 60.792969 27.21875 57.574219 27.570312 54.363281 C 27.804688 52.214844 27.957031 50.054688 28.261719 47.914062 C 28.378906 47.078125 28.511719 46.242188 28.6875 45.410156 C 28.78125 44.957031 28.761719 44.523438 28.46875 44.140625 Z M 28.46875 44.140625 " fill-opacity="1" fill-rule="nonzero"/></g><path fill="#ffffff" d="M 14.023438 18.007812 C 14.273438 17.214844 14.558594 16.398438 15.050781 15.675781 C 15.148438 15.535156 15.25 15.285156 15.4375 15.367188 C 15.660156 15.46875 15.480469 15.691406 15.425781 15.839844 C 14.609375 18.113281 14.53125 20.417969 15.113281 22.75 C 15.765625 25.34375 16.890625 27.730469 18.273438 30.003906 C 18.421875 30.25 18.5625 30.503906 18.695312 30.757812 C 18.738281 30.835938 18.742188 30.9375 18.652344 30.996094 C 18.582031 31.046875 18.507812 31.007812 18.449219 30.964844 C 18.363281 30.90625 18.273438 30.839844 18.199219 30.765625 C 15.421875 27.90625 13.941406 24.476562 13.734375 20.503906 C 13.691406 19.671875 13.828125 18.851562 14.019531 18.007812 Z M 14.023438 18.007812 " fill-opacity="1" fill-rule="nonzero"/><path fill="#ffffff" d="M 21.429688 33.289062 C 22.09375 33.484375 22.648438 33.78125 23.210938 34.0625 C 24.773438 34.847656 26.257812 35.761719 27.617188 36.867188 C 28.589844 37.652344 29.445312 38.546875 30.136719 39.59375 C 30.90625 40.757812 31.347656 42.039062 31.480469 43.425781 C 31.5 43.621094 31.578125 43.890625 31.359375 43.953125 C 31.121094 44.019531 31.0625 43.738281 31 43.5625 C 30.210938 41.429688 28.832031 39.71875 27.179688 38.203125 C 25.953125 37.085938 24.617188 36.105469 23.304688 35.097656 C 22.777344 34.691406 22.238281 34.300781 21.753906 33.84375 C 21.617188 33.714844 21.433594 33.609375 21.429688 33.289062 Z M 21.429688 33.289062 " fill-opacity="1" fill-rule="nonzero"/><path fill="#ffffff" d="M 40.792969 28.191406 C 40.722656 28.023438 40.839844 27.917969 40.917969 27.804688 C 41.761719 26.59375 42.316406 25.253906 42.679688 23.828125 C 43.023438 22.46875 43.382812 21.109375 43.632812 19.726562 C 43.675781 19.480469 43.738281 19.234375 43.804688 18.988281 C 43.835938 18.863281 43.90625 18.75 44.058594 18.761719 C 44.210938 18.765625 44.277344 18.878906 44.308594 19.007812 C 44.347656 19.179688 44.382812 19.359375 44.398438 19.539062 C 44.5625 21.128906 44.253906 22.65625 43.753906 24.152344 C 43.382812 25.25 42.875 26.277344 42.113281 27.167969 C 41.832031 27.496094 41.527344 27.800781 41.175781 28.058594 C 41.0625 28.136719 40.957031 28.253906 40.792969 28.191406 Z M 40.792969 28.191406 " fill-opacity="1" fill-rule="nonzero"/><path fill="#ffffff" d="M 33.929688 35.085938 C 33.90625 35.230469 33.824219 35.242188 33.726562 35.222656 C 33.582031 35.1875 33.476562 35.082031 33.378906 34.976562 C 31.6875 33.171875 29.730469 31.671875 27.832031 30.105469 C 27.484375 29.820312 27.132812 29.535156 26.839844 29.191406 C 26.742188 29.078125 26.5625 28.945312 26.683594 28.78125 C 26.78125 28.644531 26.953125 28.765625 27.074219 28.816406 C 27.5 29.003906 27.925781 29.199219 28.34375 29.40625 C 30.699219 30.59375 32.453125 32.402344 33.765625 34.664062 C 33.847656 34.800781 33.9375 34.9375 33.929688 35.085938 Z M 33.929688 35.085938 " fill-opacity="1" fill-rule="nonzero"/><path fill="#ffffff" d="M 10.960938 51.4375 C 11.195312 51.378906 11.359375 51.457031 11.523438 51.496094 C 13.257812 51.949219 14.898438 52.636719 16.511719 53.402344 C 16.820312 53.550781 17.125 53.703125 17.445312 53.824219 C 17.8125 53.960938 17.902344 53.925781 18.117188 53.59375 C 18.46875 53.0625 18.714844 52.484375 18.984375 51.914062 C 20.492188 48.699219 22.46875 45.785156 24.699219 43.039062 C 24.910156 42.777344 25.125 42.507812 25.550781 42.417969 C 25.546875 42.808594 25.414062 43.105469 25.234375 43.390625 C 24.472656 44.613281 23.71875 45.839844 22.941406 47.054688 C 21.691406 49.011719 20.535156 51.023438 19.46875 53.085938 C 19.277344 53.453125 19.066406 53.8125 18.824219 54.148438 C 18.355469 54.792969 17.871094 54.929688 17.128906 54.65625 C 16.417969 54.390625 15.769531 53.996094 15.09375 53.660156 C 13.945312 53.097656 12.796875 52.539062 11.65625 51.964844 C 11.417969 51.84375 11.132812 51.753906 10.964844 51.4375 Z M 10.960938 51.4375 " fill-opacity="1" fill-rule="nonzero"/><path fill="#ffffff" d="M 11.140625 49.621094 C 11.089844 49.378906 11.179688 49.203125 11.253906 49.035156 C 12.425781 46.496094 13.695312 44.015625 15.367188 41.761719 C 16.429688 40.324219 17.652344 39.03125 19 37.851562 C 19.214844 37.664062 19.433594 37.472656 19.703125 37.355469 C 19.789062 37.320312 19.878906 37.320312 19.9375 37.410156 C 19.984375 37.476562 19.957031 37.546875 19.914062 37.609375 C 19.851562 37.695312 19.792969 37.785156 19.722656 37.867188 C 17.082031 40.839844 14.960938 44.191406 12.769531 47.484375 C 12.378906 48.070312 11.984375 48.648438 11.585938 49.226562 C 11.476562 49.378906 11.390625 49.5625 11.140625 49.621094 Z M 11.140625 49.621094 " fill-opacity="1" fill-rule="nonzero"/><path fill="#ffffff" d="M 20.878906 63.078125 C 21.117188 62.820312 21.339844 62.835938 21.542969 62.808594 C 22.425781 62.703125 23.300781 62.808594 24.179688 62.925781 C 24.320312 62.945312 24.464844 62.972656 24.605469 62.984375 C 25.171875 63.027344 25.308594 62.933594 25.417969 62.375 C 25.554688 61.664062 25.59375 60.945312 25.640625 60.226562 C 25.777344 58.121094 25.886719 56.015625 26.140625 53.921875 C 26.382812 51.902344 26.675781 49.886719 27.019531 47.878906 C 27.070312 47.578125 27.15625 47.285156 27.332031 47 C 27.542969 47.136719 27.492188 47.34375 27.5 47.523438 C 27.535156 48.246094 27.429688 48.960938 27.363281 49.675781 C 27.03125 53.226562 26.761719 56.78125 26.597656 60.347656 C 26.566406 61.066406 26.507812 61.785156 26.316406 62.488281 C 26.265625 62.675781 26.207031 62.867188 26.128906 63.046875 C 25.867188 63.625 25.410156 63.882812 24.785156 63.84375 C 24.640625 63.832031 24.496094 63.8125 24.355469 63.785156 C 23.226562 63.558594 22.101562 63.328125 20.878906 63.078125 Z M 20.878906 63.078125 " fill-opacity="1" fill-rule="nonzero"/></svg>