<svg xmlns="http://www.w3.org/2000/svg" xmlns:xlink="http://www.w3.org/1999/xlink" width="128" zoomAndPan="magnify" viewBox="0 0 96 95.999999" height="128" preserveAspectRatio="xMidYMid meet" version="1.0"><defs><g/><clipPath id="6345d42663"><path d="M 8.097656 10.292969 L 87.597656 10.292969 L 87.597656 86 L 8.097656 86 Z M 8.097656 10.292969 " clip-rule="nonzero"/></clipPath><clipPath id="6ee1a368e6"><path d="M 34.121094 20.109375 L 28.71875 14.726562 C 33.796875 14.050781 41.953125 13.449219 47.769531 13.507812 C 54.9375 13.433594 65.671875 14.371094 69.804688 15.203125 C 77.292969 16.671875 84.164062 23.347656 85.789062 30.742188 L 85.789062 30.78125 C 86.871094 36.0625 87.410156 41.527344 87.421875 47.476562 C 87.429688 53.425781 86.875 58.902344 85.789062 64.1875 L 85.789062 64.226562 C 85.359375 66.109375 84.652344 67.878906 83.671875 69.535156 L 56.78125 42.714844 C 58.496094 41.621094 60.5625 41.121094 62.617188 41.113281 C 65.460938 41.125 68.324219 42.074219 70.25 44.238281 C 73.921875 48.382812 77.617188 53.023438 80.929688 57.539062 C 81.339844 54.199219 81.546875 50.84375 81.542969 47.476562 C 81.53125 41.949219 81.042969 36.886719 80.039062 32.015625 C 78.917969 26.964844 73.828125 22.042969 68.679688 21.039062 L 68.660156 21.039062 C 65.308594 20.363281 54.847656 19.378906 47.808594 19.457031 L 47.742188 19.457031 C 43.667969 19.398438 38.445312 19.710938 34.121094 20.109375 Z M 86.554688 80.769531 C 86.832031 81.042969 87.042969 81.363281 87.195312 81.726562 C 87.347656 82.089844 87.425781 82.46875 87.425781 82.863281 C 87.429688 83.257812 87.355469 83.636719 87.207031 84 C 87.058594 84.363281 86.847656 84.6875 86.574219 84.964844 C 86.300781 85.246094 85.980469 85.460938 85.621094 85.613281 C 85.261719 85.765625 84.886719 85.84375 84.496094 85.84375 C 84.105469 85.847656 83.730469 85.773438 83.367188 85.625 C 83.007812 85.476562 82.6875 85.261719 82.410156 84.984375 L 75.191406 77.78125 C 73.496094 78.71875 71.703125 79.378906 69.8125 79.761719 C 65.832031 80.558594 55.753906 81.457031 48.613281 81.457031 C 48.328125 81.457031 48.046875 81.457031 47.769531 81.457031 C 40.605469 81.535156 29.871094 80.597656 25.738281 79.765625 C 18.246094 78.289062 11.378906 71.617188 9.753906 64.222656 L 9.746094 64.183594 C 8.65625 58.898438 8.125 53.4375 8.113281 47.488281 C 8.101562 41.535156 8.65625 36.054688 9.746094 30.777344 L 9.753906 30.738281 C 10.683594 26.496094 13.339844 22.5 16.847656 19.582031 L 12.867188 15.613281 C 12.582031 15.339844 12.359375 15.019531 12.199219 14.65625 C 12.042969 14.289062 11.960938 13.910156 11.953125 13.511719 C 11.949219 13.113281 12.019531 12.726562 12.167969 12.359375 C 12.316406 11.988281 12.527344 11.664062 12.804688 11.378906 C 13.085938 11.097656 13.40625 10.878906 13.769531 10.726562 C 14.136719 10.574219 14.515625 10.5 14.910156 10.5 C 15.304688 10.5 15.683594 10.582031 16.046875 10.738281 C 16.414062 10.890625 16.730469 11.113281 17.007812 11.398438 Z M 48.886719 51.542969 L 36.761719 39.445312 C 36.660156 39.714844 36.546875 39.976562 36.414062 40.234375 C 36.28125 40.488281 36.132812 40.734375 35.96875 40.972656 C 35.808594 41.207031 35.628906 41.433594 35.441406 41.648438 C 35.25 41.863281 35.046875 42.0625 34.832031 42.253906 C 34.613281 42.441406 34.386719 42.617188 34.152344 42.777344 C 33.914062 42.9375 33.667969 43.082031 33.410156 43.210938 C 33.15625 43.339844 32.894531 43.453125 32.625 43.550781 C 32.355469 43.648438 32.082031 43.726562 31.800781 43.789062 C 31.523438 43.851562 31.242188 43.894531 30.957031 43.921875 C 30.671875 43.949219 30.386719 43.957031 30.101562 43.945312 C 29.816406 43.9375 29.53125 43.910156 29.25 43.863281 C 28.96875 43.820312 28.691406 43.757812 28.414062 43.675781 C 28.140625 43.597656 27.871094 43.5 27.609375 43.386719 C 27.347656 43.273438 27.09375 43.144531 26.847656 42.996094 C 26.601562 42.851562 26.363281 42.691406 26.136719 42.515625 C 25.910156 42.339844 25.695312 42.148438 25.492188 41.949219 C 25.289062 41.746094 25.101562 41.53125 24.921875 41.304688 C 24.746094 41.078125 24.585938 40.839844 24.4375 40.59375 C 24.289062 40.347656 24.160156 40.09375 24.042969 39.828125 C 23.925781 39.566406 23.828125 39.296875 23.746094 39.019531 C 23.664062 38.742188 23.597656 38.464844 23.550781 38.179688 C 23.503906 37.894531 23.472656 37.609375 23.460938 37.320312 C 23.449219 37.035156 23.453125 36.746094 23.476562 36.460938 C 23.5 36.171875 23.542969 35.886719 23.601562 35.605469 C 23.660156 35.324219 23.734375 35.046875 23.828125 34.773438 C 23.917969 34.5 24.027344 34.234375 24.15625 33.976562 C 24.28125 33.71875 24.421875 33.46875 24.578125 33.226562 C 24.734375 32.988281 24.90625 32.757812 25.089844 32.539062 C 25.277344 32.316406 25.472656 32.109375 25.683594 31.917969 C 25.894531 31.722656 26.117188 31.539062 26.347656 31.375 C 26.582031 31.207031 26.824219 31.054688 27.078125 30.921875 C 27.328125 30.785156 27.585938 30.664062 27.855469 30.558594 L 21.070312 23.800781 C 18.339844 25.921875 16.1875 28.9375 15.507812 32.007812 C 14.503906 36.878906 14.011719 41.945312 14 47.488281 C 13.988281 53.03125 14.5 58.078125 15.503906 62.957031 C 15.636719 63.539062 15.8125 64.105469 16.03125 64.660156 C 18.667969 60.984375 21.703125 57.128906 24.71875 53.726562 C 26.132812 52.140625 28.234375 51.445312 30.320312 51.433594 C 32.40625 51.425781 34.503906 52.140625 35.925781 53.726562 C 37.9375 55.996094 39.953125 58.464844 41.855469 60.949219 C 44.015625 57.875 46.398438 54.675781 48.886719 51.542969 Z M 48.886719 51.542969 " clip-rule="nonzero"/></clipPath><linearGradient x1="-0.069999" gradientTransform="matrix(0.15491, 0, 0, 0.156182, 8.1141, 8.20904)" y1="256" x2="512.009998" gradientUnits="userSpaceOnUse" y2="256" id="390092ed9e"><stop stop-opacity="1" stop-color="rgb(41.958618%, 49.798584%, 49.798584%)" offset="0"/><stop stop-opacity="1" stop-color="rgb(42.06543%, 49.92981%, 49.940491%)" offset="0.015625"/><stop stop-opacity="1" stop-color="rgb(42.279053%, 50.195312%, 50.22583%)" offset="0.03125"/><stop stop-opacity="1" stop-color="rgb(42.492676%, 50.460815%, 50.511169%)" offset="0.046875"/><stop stop-opacity="1" stop-color="rgb(42.707825%, 50.726318%, 50.796509%)" offset="0.0625"/><stop stop-opacity="1" stop-color="rgb(42.922974%, 50.991821%, 51.083374%)" offset="0.078125"/><stop stop-opacity="1" stop-color="rgb(43.136597%, 51.257324%, 51.368713%)" offset="0.09375"/><stop stop-opacity="1" stop-color="rgb(43.351746%, 51.524353%, 51.655579%)" offset="0.109375"/><stop stop-opacity="1" stop-color="rgb(43.566895%, 51.789856%, 51.940918%)" offset="0.125"/><stop stop-opacity="1" stop-color="rgb(43.780518%, 52.055359%, 52.227783%)" offset="0.140625"/><stop stop-opacity="1" stop-color="rgb(43.995667%, 52.320862%, 52.513123%)" offset="0.15625"/><stop stop-opacity="1" stop-color="rgb(44.210815%, 52.586365%, 52.798462%)" offset="0.171875"/><stop stop-opacity="1" stop-color="rgb(44.424438%, 52.851868%, 53.085327%)" offset="0.1875"/><stop stop-opacity="1" stop-color="rgb(44.639587%, 53.117371%, 53.370667%)" offset="0.203125"/><stop stop-opacity="1" stop-color="rgb(44.854736%, 53.382874%, 53.657532%)" offset="0.21875"/><stop stop-opacity="1" stop-color="rgb(45.068359%, 53.648376%, 53.942871%)" offset="0.234375"/><stop stop-opacity="1" stop-color="rgb(45.283508%, 53.915405%, 54.229736%)" offset="0.25"/><stop stop-opacity="1" stop-color="rgb(45.498657%, 54.180908%, 54.515076%)" offset="0.265625"/><stop stop-opacity="1" stop-color="rgb(45.71228%, 54.446411%, 54.800415%)" offset="0.28125"/><stop stop-opacity="1" stop-color="rgb(45.927429%, 54.711914%, 55.08728%)" offset="0.296875"/><stop stop-opacity="1" stop-color="rgb(46.142578%, 54.977417%, 55.37262%)" offset="0.3125"/><stop stop-opacity="1" stop-color="rgb(46.356201%, 55.24292%, 55.659485%)" offset="0.328125"/><stop stop-opacity="1" stop-color="rgb(46.57135%, 55.508423%, 55.944824%)" offset="0.34375"/><stop stop-opacity="1" stop-color="rgb(46.786499%, 55.773926%, 56.230164%)" offset="0.359375"/><stop stop-opacity="1" stop-color="rgb(47.000122%, 56.039429%, 56.517029%)" offset="0.375"/><stop stop-opacity="1" stop-color="rgb(47.215271%, 56.304932%, 56.802368%)" offset="0.390625"/><stop stop-opacity="1" stop-color="rgb(47.428894%, 56.57196%, 57.089233%)" offset="0.40625"/><stop stop-opacity="1" stop-color="rgb(47.644043%, 56.837463%, 57.374573%)" offset="0.421875"/><stop stop-opacity="1" stop-color="rgb(47.859192%, 57.102966%, 57.661438%)" offset="0.4375"/><stop stop-opacity="1" stop-color="rgb(48.072815%, 57.368469%, 57.946777%)" offset="0.453125"/><stop stop-opacity="1" stop-color="rgb(48.287964%, 57.633972%, 58.232117%)" offset="0.46875"/><stop stop-opacity="1" stop-color="rgb(48.503113%, 57.899475%, 58.518982%)" offset="0.484375"/><stop stop-opacity="1" stop-color="rgb(48.716736%, 58.164978%, 58.804321%)" offset="0.5"/><stop stop-opacity="1" stop-color="rgb(48.931885%, 58.430481%, 59.091187%)" offset="0.515625"/><stop stop-opacity="1" stop-color="rgb(49.147034%, 58.695984%, 59.376526%)" offset="0.53125"/><stop stop-opacity="1" stop-color="rgb(49.360657%, 58.963013%, 59.663391%)" offset="0.546875"/><stop stop-opacity="1" stop-color="rgb(49.575806%, 59.228516%, 59.94873%)" offset="0.5625"/><stop stop-opacity="1" stop-color="rgb(49.790955%, 59.494019%, 60.23407%)" offset="0.578125"/><stop stop-opacity="1" stop-color="rgb(50.004578%, 59.759521%, 60.520935%)" offset="0.59375"/><stop stop-opacity="1" stop-color="rgb(50.18158%, 59.968567%, 60.745239%)" offset="0.601562"/><stop stop-opacity="1" stop-color="rgb(50.379944%, 60.168457%, 60.943604%)" offset="0.609375"/><stop stop-opacity="1" stop-color="rgb(50.639343%, 60.414124%, 61.181641%)" offset="0.617187"/><stop stop-opacity="1" stop-color="rgb(50.900269%, 60.65979%, 61.419678%)" offset="0.625"/><stop stop-opacity="1" stop-color="rgb(51.161194%, 60.903931%, 61.656189%)" offset="0.632812"/><stop stop-opacity="1" stop-color="rgb(51.420593%, 61.149597%, 61.894226%)" offset="0.640625"/><stop stop-opacity="1" stop-color="rgb(51.681519%, 61.395264%, 62.132263%)" offset="0.648437"/><stop stop-opacity="1" stop-color="rgb(51.942444%, 61.639404%, 62.368774%)" offset="0.65625"/><stop stop-opacity="1" stop-color="rgb(52.201843%, 61.885071%, 62.606812%)" offset="0.664062"/><stop stop-opacity="1" stop-color="rgb(52.462769%, 62.130737%, 62.844849%)" offset="0.671875"/><stop stop-opacity="1" stop-color="rgb(52.723694%, 62.374878%, 63.08136%)" offset="0.679687"/><stop stop-opacity="1" stop-color="rgb(52.983093%, 62.620544%, 63.319397%)" offset="0.6875"/><stop stop-opacity="1" stop-color="rgb(53.244019%, 62.866211%, 63.557434%)" offset="0.695312"/><stop stop-opacity="1" stop-color="rgb(53.504944%, 63.110352%, 63.793945%)" offset="0.703125"/><stop stop-opacity="1" stop-color="rgb(53.764343%, 63.356018%, 64.031982%)" offset="0.710937"/><stop stop-opacity="1" stop-color="rgb(54.025269%, 63.601685%, 64.27002%)" offset="0.71875"/><stop stop-opacity="1" stop-color="rgb(54.286194%, 63.845825%, 64.506531%)" offset="0.726562"/><stop stop-opacity="1" stop-color="rgb(54.545593%, 64.091492%, 64.744568%)" offset="0.734375"/><stop stop-opacity="1" stop-color="rgb(54.806519%, 64.337158%, 64.982605%)" offset="0.742187"/><stop stop-opacity="1" stop-color="rgb(55.065918%, 64.581299%, 65.219116%)" offset="0.75"/><stop stop-opacity="1" stop-color="rgb(55.326843%, 64.826965%, 65.457153%)" offset="0.757812"/><stop stop-opacity="1" stop-color="rgb(55.587769%, 65.072632%, 65.69519%)" offset="0.765625"/><stop stop-opacity="1" stop-color="rgb(55.847168%, 65.316772%, 65.931702%)" offset="0.773437"/><stop stop-opacity="1" stop-color="rgb(56.108093%, 65.562439%, 66.169739%)" offset="0.78125"/><stop stop-opacity="1" stop-color="rgb(56.369019%, 65.808105%, 66.407776%)" offset="0.789062"/><stop stop-opacity="1" stop-color="rgb(56.628418%, 66.052246%, 66.644287%)" offset="0.796875"/><stop stop-opacity="1" stop-color="rgb(56.889343%, 66.297913%, 66.882324%)" offset="0.804687"/><stop stop-opacity="1" stop-color="rgb(57.150269%, 66.543579%, 67.120361%)" offset="0.8125"/><stop stop-opacity="1" stop-color="rgb(57.409668%, 66.78772%, 67.356873%)" offset="0.820312"/><stop stop-opacity="1" stop-color="rgb(57.670593%, 67.033386%, 67.59491%)" offset="0.828125"/><stop stop-opacity="1" stop-color="rgb(57.931519%, 67.279053%, 67.832947%)" offset="0.835937"/><stop stop-opacity="1" stop-color="rgb(58.190918%, 67.523193%, 68.069458%)" offset="0.84375"/><stop stop-opacity="1" stop-color="rgb(58.451843%, 67.76886%, 68.307495%)" offset="0.851562"/><stop stop-opacity="1" stop-color="rgb(58.712769%, 68.014526%, 68.545532%)" offset="0.859375"/><stop stop-opacity="1" stop-color="rgb(58.972168%, 68.258667%, 68.782043%)" offset="0.867187"/><stop stop-opacity="1" stop-color="rgb(59.233093%, 68.504333%, 69.020081%)" offset="0.875"/><stop stop-opacity="1" stop-color="rgb(59.494019%, 68.75%, 69.258118%)" offset="0.882812"/><stop stop-opacity="1" stop-color="rgb(59.753418%, 68.994141%, 69.494629%)" offset="0.890625"/><stop stop-opacity="1" stop-color="rgb(60.014343%, 69.239807%, 69.732666%)" offset="0.898437"/><stop stop-opacity="1" stop-color="rgb(60.273743%, 69.485474%, 69.970703%)" offset="0.90625"/><stop stop-opacity="1" stop-color="rgb(60.534668%, 69.729614%, 70.207214%)" offset="0.914062"/><stop stop-opacity="1" stop-color="rgb(60.795593%, 69.975281%, 70.445251%)" offset="0.921875"/><stop stop-opacity="1" stop-color="rgb(61.054993%, 70.220947%, 70.683289%)" offset="0.929687"/><stop stop-opacity="1" stop-color="rgb(61.315918%, 70.465088%, 70.9198%)" offset="0.9375"/><stop stop-opacity="1" stop-color="rgb(61.576843%, 70.710754%, 71.157837%)" offset="0.945312"/><stop stop-opacity="1" stop-color="rgb(61.836243%, 70.956421%, 71.395874%)" offset="0.953125"/><stop stop-opacity="1" stop-color="rgb(62.097168%, 71.200562%, 71.632385%)" offset="0.960937"/><stop stop-opacity="1" stop-color="rgb(62.358093%, 71.446228%, 71.870422%)" offset="0.96875"/><stop stop-opacity="1" stop-color="rgb(62.617493%, 71.691895%, 72.108459%)" offset="0.976562"/><stop stop-opacity="1" stop-color="rgb(62.878418%, 71.936035%, 72.346497%)" offset="0.984375"/><stop stop-opacity="1" stop-color="rgb(63.139343%, 72.181702%, 72.583008%)" offset="0.992187"/><stop stop-opacity="1" stop-color="rgb(63.398743%, 72.427368%, 72.819519%)" offset="1"/></linearGradient></defs><g fill="#000000" fill-opacity="1"><g transform="translate(49.259763, 73.949998)"><g><path d="M 4.59375 -1.625 C 4.59375 -1.0625 4.394531 -0.632812 4 -0.34375 C 3.613281 -0.0507812 3.035156 0.09375 2.265625 0.09375 C 1.867188 0.09375 1.53125 0.0664062 1.25 0.015625 C 0.96875 -0.0351562 0.703125 -0.113281 0.453125 -0.21875 L 0.453125 -1.453125 C 0.734375 -1.316406 1.046875 -1.203125 1.390625 -1.109375 C 1.742188 -1.023438 2.050781 -0.984375 2.3125 -0.984375 C 2.851562 -0.984375 3.125 -1.140625 3.125 -1.453125 C 3.125 -1.578125 3.085938 -1.675781 3.015625 -1.75 C 2.941406 -1.820312 2.816406 -1.90625 2.640625 -2 C 2.460938 -2.09375 2.226562 -2.195312 1.9375 -2.3125 C 1.519531 -2.488281 1.210938 -2.648438 1.015625 -2.796875 C 0.816406 -2.953125 0.671875 -3.125 0.578125 -3.3125 C 0.492188 -3.507812 0.453125 -3.75 0.453125 -4.03125 C 0.453125 -4.519531 0.640625 -4.894531 1.015625 -5.15625 C 1.390625 -5.425781 1.921875 -5.5625 2.609375 -5.5625 C 3.265625 -5.5625 3.90625 -5.414062 4.53125 -5.125 L 4.078125 -4.0625 C 3.804688 -4.175781 3.550781 -4.269531 3.3125 -4.34375 C 3.070312 -4.414062 2.832031 -4.453125 2.59375 -4.453125 C 2.144531 -4.453125 1.921875 -4.335938 1.921875 -4.109375 C 1.921875 -3.972656 1.992188 -3.851562 2.140625 -3.75 C 2.285156 -3.65625 2.597656 -3.515625 3.078125 -3.328125 C 3.503906 -3.148438 3.816406 -2.984375 4.015625 -2.828125 C 4.210938 -2.679688 4.359375 -2.507812 4.453125 -2.3125 C 4.546875 -2.125 4.59375 -1.894531 4.59375 -1.625 Z M 4.59375 -1.625 "/></g></g></g><g clip-path="url(#6345d42663)"><g clip-path="url(#6ee1a368e6)"><path fill="url(#390092ed9e)" d="M 8.101562 10.5 L 8.101562 85.847656 L 87.429688 85.847656 L 87.429688 10.5 Z M 8.101562 10.5 " fill-rule="nonzero"/></g></g></svg>